<mxfile host="app.diagrams.net" modified="2023-10-30T23:03:19.192Z" agent="Mozilla/5.0 (Windows NT 10.0; Win64; x64) AppleWebKit/537.36 (KHTML, like Gecko) Chrome/118.0.0.0 Safari/537.36" version="22.0.8" etag="guUnYqXDtPt2nYNQq7Xt" type="github">
  <diagram name="Page-1" id="zR-I5F8DsFgreABGI03T">
    <mxGraphModel>
      <root>
        <mxCell id="0" />
        <mxCell id="1" parent="0" />
      </root>
    </mxGraphModel>
  </diagram>
</mxfile>
